<svg width="302.6" height="50" viewBox="0 0 6052 1000" fill="none" xmlns="http://www.w3.org/2000/svg">
<g id="Frame 3">
<g id="Group">
<g id="Group_2">
<path id="Vector" d="M488.3 864.6C483.8 864.6 480.1 860.9 480.1 856.4V546.1L382.4 449.9C380.8 448.4 380 446.3 380 444.1V318.9C380 314.4 383.7 310.7 388.2 310.7C392.7 310.7 396.4 314.4 396.4 318.9V440.7L494.1 536.9C495.7 538.4 496.5 540.5 496.5 542.7V856.5C496.5 860.9 492.8 864.6 488.3 864.6Z" fill="url(#paint0_linear)"/>
</g>
<g id="Group_3">
<path id="Vector_2" d="M565.3 864.6C560.8 864.6 557.1 860.9 557.1 856.4V384.6C557.1 380.1 560.8 376.4 565.3 376.4C569.8 376.4 573.5 380.1 573.5 384.6V856.4C573.5 860.9 569.8 864.6 565.3 864.6Z" fill="url(#paint1_linear)"/>
</g>
<g id="Group_4">
<path id="Vector_3" d="M648 864.6C643.5 864.6 639.8 860.9 639.8 856.4V458.2C639.8 456 640.7 454 642.2 452.4L738.4 356.2V206.2C738.4 201.7 742.1 198 746.6 198C751.1 198 754.8 201.7 754.8 206.2V359.6C754.8 361.8 753.9 363.8 752.4 365.4L656.2 461.6V856.5C656.1 860.9 652.5 864.6 648 864.6Z" fill="url(#paint2_linear)"/>
</g>
<g id="Group_5">
<path id="Vector_4" d="M746.5 247.7C769.42 247.7 788 229.12 788 206.2C788 183.28 769.42 164.7 746.5 164.7C723.58 164.7 705 183.28 705 206.2C705 229.12 723.58 247.7 746.5 247.7Z" fill="url(#paint3_linear)"/>
</g>
<g id="Group_6">
<path id="Vector_5" d="M565.3 459.7C588.22 459.7 606.8 441.12 606.8 418.2C606.8 395.28 588.22 376.7 565.3 376.7C542.38 376.7 523.8 395.28 523.8 418.2C523.8 441.12 542.38 459.7 565.3 459.7Z" fill="url(#paint4_linear)"/>
</g>
<g id="Group_7">
<path id="Vector_6" d="M388.2 360.4C411.12 360.4 429.7 341.82 429.7 318.9C429.7 295.98 411.12 277.4 388.2 277.4C365.28 277.4 346.7 295.98 346.7 318.9C346.7 341.82 365.28 360.4 388.2 360.4Z" fill="url(#paint5_linear)"/>
</g>
<g id="Group_8">
<path id="Vector_7" d="M565.3 1000C451.5 1000 430.4 905.2 430.2 904.3C429.7 901.9 430.3 899.4 431.9 897.5C433.5 895.6 435.8 894.5 438.2 894.5H692.3C694.8 894.5 697.1 895.6 698.6 897.5C700.2 899.4 700.8 901.9 700.3 904.3C700.2 905.2 679.1 1000 565.3 1000ZM449.3 910.8C457.5 932.8 485.1 983.7 565.4 983.7C645.6 983.7 673.2 932.9 681.4 910.8H449.3Z" fill="url(#paint6_linear)"/>
</g>
<g id="Group_9">
<path id="Vector_8" d="M675.8 864.6H454.8C451.5 864.6 448.6 862.6 447.3 859.6L360.7 656.9C263.2 589.5 205 478.8 205 360.3C205 349.5 205.5 338.3 206.5 327.1C223.5 140.6 377.8 0 565.3 0C752.8 0 907.1 140.6 924.1 327.1C925.1 338.4 925.6 349.5 925.6 360.3C925.6 478.8 867.4 589.5 769.8 656.9L683.2 859.6C682 862.6 679 864.6 675.8 864.6ZM460.2 848.3H670.4L755.8 648.3C756.4 646.9 757.4 645.6 758.7 644.8C853 580.6 909.3 474.2 909.3 360.4C909.3 350 908.8 339.6 907.8 328.7C891.5 150.7 744.3 16.5 565.3 16.5C386.3 16.5 239 150.6 222.8 328.6C221.8 339.3 221.4 350 221.4 360.3C221.4 474.2 277.7 580.5 372 644.7C373.3 645.6 374.3 646.8 374.9 648.2L460.2 848.3Z" fill="url(#paint7_linear)"/>
</g>
</g>
<path id="Smart Energy" d="M1212.01 614.2C1179.08 614.2 1147.66 609.65 1117.76 600.55C1088.3 591.45 1064.68 578.883 1046.91 562.85C1038.68 555.917 1034.56 547.033 1034.56 536.2C1034.56 528.4 1036.73 521.9 1041.06 516.7C1045.4 511.067 1050.6 508.25 1056.66 508.25C1062.73 508.25 1070.1 511.067 1078.76 516.7C1117.33 545.3 1161.31 559.6 1210.71 559.6C1245.38 559.6 1272.03 553.1 1290.66 540.1C1309.3 527.1 1318.61 508.467 1318.61 484.2C1318.61 465.133 1309.95 450.833 1292.61 441.3C1275.28 431.767 1247.55 422.667 1209.41 414C1173.01 406.2 1143.11 397.317 1119.71 387.35C1096.31 377.383 1077.9 363.95 1064.46 347.05C1051.46 329.717 1044.96 307.833 1044.96 281.4C1044.96 254.967 1052.11 231.567 1066.41 211.2C1081.15 190.4 1101.51 174.367 1127.51 163.1C1153.51 151.4 1183.2 145.55 1216.56 145.55C1247.33 145.55 1275.71 149.883 1301.71 158.55C1327.71 167.217 1349.81 180 1368.01 196.9C1376.68 204.267 1381.01 213.15 1381.01 223.55C1381.01 230.917 1378.63 237.417 1373.86 243.05C1369.53 248.683 1364.33 251.5 1358.26 251.5C1352.63 251.5 1345.48 248.683 1336.81 243.05C1316.88 227.883 1298.03 217.05 1280.26 210.55C1262.93 203.617 1241.91 200.15 1217.21 200.15C1183.85 200.15 1157.85 207.083 1139.21 220.95C1120.58 234.383 1111.26 253.233 1111.26 277.5C1111.26 298.3 1119.5 314.117 1135.96 324.95C1152.43 335.35 1178.86 344.883 1215.26 353.55C1253.4 362.217 1284.16 371.317 1307.56 380.85C1331.4 389.95 1350.25 402.733 1364.11 419.2C1378.41 435.233 1385.56 456.033 1385.56 481.6C1385.56 507.6 1378.2 530.783 1363.46 551.15C1349.16 571.083 1328.8 586.683 1302.36 597.95C1276.36 608.783 1246.25 614.2 1212.01 614.2ZM1824.28 284C1895.35 284 1930.88 326.683 1930.88 412.05V581.05C1930.88 591.017 1927.85 598.817 1921.78 604.45C1915.72 609.65 1907.7 612.25 1897.73 612.25C1888.2 612.25 1880.4 609.65 1874.33 604.45C1868.27 598.817 1865.23 591.017 1865.23 581.05V412.7C1865.23 386.267 1860.47 367.2 1850.93 355.5C1841.4 343.367 1826.45 337.3 1806.08 337.3C1782.25 337.3 1763.4 345.533 1749.53 362C1735.67 378.033 1728.73 400.133 1728.73 428.3V581.05C1728.73 591.017 1725.7 598.817 1719.63 604.45C1713.57 609.65 1705.55 612.25 1695.58 612.25C1686.05 612.25 1678.25 609.65 1672.18 604.45C1666.12 598.817 1663.08 591.017 1663.08 581.05V412.7C1663.08 386.267 1658.32 367.2 1648.78 355.5C1639.25 343.367 1624.3 337.3 1603.93 337.3C1580.1 337.3 1561.03 345.533 1546.73 362C1532.87 378.033 1525.93 400.133 1525.93 428.3V581.05C1525.93 591.017 1522.9 598.817 1516.83 604.45C1510.77 609.65 1502.97 612.25 1493.43 612.25C1483.9 612.25 1475.88 609.65 1469.38 604.45C1463.32 598.817 1460.28 591.017 1460.28 581.05V316.5C1460.28 306.967 1463.53 299.383 1470.03 293.75C1476.53 288.117 1484.33 285.3 1493.43 285.3C1502.53 285.3 1509.9 288.117 1515.53 293.75C1521.6 298.95 1524.63 306.317 1524.63 315.85V339.9C1534.17 321.7 1547.38 307.833 1564.28 298.3C1581.18 288.767 1600.68 284 1622.78 284C1647.05 284 1666.98 288.983 1682.58 298.95C1698.62 308.917 1710.53 324.3 1718.33 345.1C1727.87 326.467 1741.95 311.733 1760.58 300.9C1779.22 289.633 1800.45 284 1824.28 284ZM2154.03 284C2196.06 284 2227.26 294.617 2247.63 315.85C2268.43 337.083 2278.83 369.367 2278.83 412.7V581.05C2278.83 591.017 2276.01 598.817 2270.38 604.45C2264.75 609.65 2256.95 612.25 2246.98 612.25C2237.45 612.25 2229.86 609.433 2224.23 603.8C2218.6 598.167 2215.78 590.583 2215.78 581.05V557C2207.55 575.2 2195.2 589.283 2178.73 599.25C2162.7 608.783 2143.85 613.55 2122.18 613.55C2101.38 613.55 2082.31 609.433 2064.98 601.2C2048.08 592.533 2034.65 580.833 2024.68 566.1C2014.71 551.367 2009.73 534.683 2009.73 516.05C2009.3 492.65 2015.15 474.45 2027.28 461.45C2039.41 448.017 2059.13 438.483 2086.43 432.85C2113.73 426.783 2151.65 423.75 2200.18 423.75H2215.13V404.9C2215.13 380.633 2210.15 363.083 2200.18 352.25C2190.21 341.417 2174.18 336 2152.08 336C2136.91 336 2122.61 337.95 2109.18 341.85C2095.75 345.75 2081.01 351.383 2064.98 358.75C2053.28 365.25 2045.05 368.5 2040.28 368.5C2033.78 368.5 2028.36 366.117 2024.03 361.35C2020.13 356.583 2018.18 350.517 2018.18 343.15C2018.18 336.65 2019.91 331.017 2023.38 326.25C2027.28 321.05 2033.35 316.067 2041.58 311.3C2056.75 303.067 2074.51 296.567 2094.88 291.8C2115.25 286.6 2134.96 284 2154.03 284ZM2133.88 564.8C2157.71 564.8 2177.21 556.783 2192.38 540.75C2207.55 524.283 2215.13 503.267 2215.13 477.7V460.8H2203.43C2169.63 460.8 2143.63 462.317 2125.43 465.35C2107.23 468.383 2094.23 473.583 2086.43 480.95C2078.63 487.883 2074.73 498.067 2074.73 511.5C2074.73 527.1 2080.36 539.883 2091.63 549.85C2102.9 559.817 2116.98 564.8 2133.88 564.8ZM2535.03 285.3C2555.83 284 2566.23 292.883 2566.23 311.95C2566.23 321.483 2563.85 328.633 2559.08 333.4C2554.32 338.167 2546.08 340.983 2534.38 341.85L2514.88 343.8C2487.58 346.4 2467.22 355.933 2453.78 372.4C2440.78 388.867 2434.28 408.8 2434.28 432.2V581.05C2434.28 591.45 2431.25 599.25 2425.18 604.45C2419.12 609.65 2411.32 612.25 2401.78 612.25C2392.25 612.25 2384.23 609.65 2377.73 604.45C2371.67 599.25 2368.63 591.45 2368.63 581.05V316.5C2368.63 306.533 2371.67 298.95 2377.73 293.75C2384.23 288.117 2392.25 285.3 2401.78 285.3C2410.45 285.3 2417.6 288.117 2423.23 293.75C2429.3 298.95 2432.33 306.317 2432.33 315.85V347.05C2441 327.983 2453.57 313.467 2470.03 303.5C2486.5 293.533 2505.13 287.683 2525.93 285.95L2535.03 285.3ZM2789.31 562.2C2798.85 563.067 2805.56 565.667 2809.46 570C2813.8 573.9 2815.96 579.533 2815.96 586.9C2815.96 595.567 2812.5 602.283 2805.56 607.05C2799.06 611.383 2789.31 613.117 2776.31 612.25L2758.76 610.95C2723.66 608.35 2697.45 597.733 2680.11 579.1C2662.78 560.033 2654.11 532.083 2654.11 495.25V342.5H2615.11C2596.05 342.5 2586.51 334.05 2586.51 317.15C2586.51 309.35 2588.9 303.283 2593.66 298.95C2598.86 294.183 2606.01 291.8 2615.11 291.8H2654.11V224.85C2654.11 214.883 2656.93 207.083 2662.56 201.45C2668.63 195.817 2676.65 193 2686.61 193C2696.58 193 2704.6 195.817 2710.66 201.45C2716.73 207.083 2719.76 214.883 2719.76 224.85V291.8H2784.11C2793.21 291.8 2800.15 294.183 2804.91 298.95C2810.11 303.283 2812.71 309.35 2812.71 317.15C2812.71 325.383 2810.11 331.667 2804.91 336C2800.15 340.333 2793.21 342.5 2784.11 342.5H2719.76V499.8C2719.76 520.167 2723.88 535.117 2732.11 544.65C2740.78 554.183 2753.78 559.6 2771.11 560.9L2789.31 562.2ZM3075.45 609C3065.05 609 3056.82 606.183 3050.75 600.55C3045.12 594.483 3042.3 586.467 3042.3 576.5V183.25C3042.3 173.283 3045.12 165.483 3050.75 159.85C3056.82 153.783 3065.05 150.75 3075.45 150.75H3314.65C3324.62 150.75 3332.2 153.133 3337.4 157.9C3343.03 162.667 3345.85 169.383 3345.85 178.05C3345.85 186.717 3343.03 193.433 3337.4 198.2C3332.2 202.533 3324.62 204.7 3314.65 204.7H3107.95V349H3301.65C3311.62 349 3319.2 351.383 3324.4 356.15C3330.03 360.917 3332.85 367.633 3332.85 376.3C3332.85 384.967 3330.03 391.683 3324.4 396.45C3319.2 401.217 3311.62 403.6 3301.65 403.6H3107.95V555.05H3314.65C3335.45 555.05 3345.85 563.933 3345.85 581.7C3345.85 590.367 3343.03 597.083 3337.4 601.85C3332.2 606.617 3324.62 609 3314.65 609H3075.45ZM3585.68 284C3661.51 284 3699.43 326.683 3699.43 412.05V581.05C3699.43 591.017 3696.39 598.817 3690.33 604.45C3684.69 609.65 3676.68 612.25 3666.28 612.25C3656.31 612.25 3648.29 609.433 3642.23 603.8C3636.59 598.167 3633.78 590.583 3633.78 581.05V415.3C3633.78 388.433 3628.36 368.717 3617.53 356.15C3607.13 343.583 3590.66 337.3 3568.13 337.3C3541.69 337.3 3520.46 345.533 3504.43 362C3488.39 378.467 3480.38 400.567 3480.38 428.3V581.05C3480.38 590.583 3477.34 598.167 3471.28 603.8C3465.64 609.433 3457.84 612.25 3447.88 612.25C3437.91 612.25 3429.89 609.433 3423.83 603.8C3417.76 598.167 3414.73 590.583 3414.73 581.05V316.5C3414.73 307.4 3417.76 300.033 3423.83 294.4C3430.33 288.333 3438.34 285.3 3447.88 285.3C3457.41 285.3 3464.99 288.117 3470.63 293.75C3476.26 299.383 3479.08 306.75 3479.08 315.85V342.5C3489.48 323.433 3503.99 308.917 3522.63 298.95C3541.26 288.983 3562.28 284 3585.68 284ZM4037.54 529.05C4043.6 529.05 4048.59 531.433 4052.49 536.2C4056.39 540.967 4058.34 547.033 4058.34 554.4C4058.34 566.967 4050.54 577.583 4034.94 586.25C4019.77 594.917 4003.09 601.633 3984.89 606.4C3967.12 611.167 3950 613.55 3933.54 613.55C3883.27 613.55 3843.62 599.033 3814.59 570C3785.55 540.533 3771.04 500.45 3771.04 449.75C3771.04 417.25 3777.32 388.433 3789.89 363.3C3802.89 338.167 3820.87 318.667 3843.84 304.8C3867.24 290.933 3893.67 284 3923.14 284C3965.6 284 3999.19 297.65 4023.89 324.95C4048.59 352.25 4060.94 389.083 4060.94 435.45C4060.94 452.783 4053.14 461.45 4037.54 461.45H3836.69C3841.02 528.617 3873.3 562.2 3933.54 562.2C3949.57 562.2 3963.44 560.033 3975.14 555.7C3986.84 551.367 3999.19 545.733 4012.19 538.8C4013.49 537.933 4016.95 536.2 4022.59 533.6C4028.65 530.567 4033.64 529.05 4037.54 529.05ZM3924.44 332.1C3899.3 332.1 3879.15 340.117 3863.99 356.15C3848.82 372.183 3839.72 394.717 3836.69 423.75H4004.39C4003.09 394.283 3995.5 371.75 3981.64 356.15C3968.2 340.117 3949.14 332.1 3924.44 332.1ZM4299.68 285.3C4320.48 284 4330.88 292.883 4330.88 311.95C4330.88 321.483 4328.5 328.633 4323.73 333.4C4318.96 338.167 4310.73 340.983 4299.03 341.85L4279.53 343.8C4252.23 346.4 4231.86 355.933 4218.43 372.4C4205.43 388.867 4198.93 408.8 4198.93 432.2V581.05C4198.93 591.45 4195.9 599.25 4189.83 604.45C4183.76 609.65 4175.96 612.25 4166.43 612.25C4156.9 612.25 4148.88 609.65 4142.38 604.45C4136.31 599.25 4133.28 591.45 4133.28 581.05V316.5C4133.28 306.533 4136.31 298.95 4142.38 293.75C4148.88 288.117 4156.9 285.3 4166.43 285.3C4175.1 285.3 4182.25 288.117 4187.88 293.75C4193.95 298.95 4196.98 306.317 4196.98 315.85V347.05C4205.65 327.983 4218.21 313.467 4234.68 303.5C4251.15 293.533 4269.78 287.683 4290.58 285.95L4299.68 285.3ZM4627.57 285.3C4637.54 285.3 4645.34 288.333 4650.97 294.4C4657.04 300.033 4660.07 307.617 4660.07 317.15V583.65C4660.07 632.183 4647.07 668.8 4621.07 693.5C4595.5 718.2 4557.59 730.55 4507.32 730.55C4460.52 730.55 4421.52 721.667 4390.32 703.9C4374.29 694.8 4366.27 683.967 4366.27 671.4C4366.27 664.033 4368.22 657.967 4372.12 653.2C4376.45 648.433 4381.65 646.05 4387.72 646.05C4393.35 646.05 4402.24 649.3 4414.37 655.8C4429.97 663.167 4444.49 668.8 4457.92 672.7C4471.35 677.033 4487.39 679.2 4506.02 679.2C4565.82 679.2 4595.72 649.083 4595.72 588.85V538.8C4586.62 557.867 4572.75 572.817 4554.12 583.65C4535.49 594.05 4513.82 599.25 4489.12 599.25C4461.39 599.25 4436.69 592.75 4415.02 579.75C4393.35 566.75 4376.45 548.333 4364.32 524.5C4352.62 500.667 4346.77 473.15 4346.77 441.95C4346.77 410.75 4352.84 383.233 4364.97 359.4C4377.1 335.567 4393.79 317.15 4415.02 304.15C4436.69 290.717 4461.39 284 4489.12 284C4513.39 284 4534.62 289.2 4552.82 299.6C4571.45 310 4585.54 324.733 4595.07 343.8V316.5C4595.07 306.967 4597.89 299.383 4603.52 293.75C4609.59 288.117 4617.6 285.3 4627.57 285.3ZM4504.72 547.25C4532.89 547.25 4554.99 537.933 4571.02 519.3C4587.05 500.667 4595.07 474.883 4595.07 441.95C4595.07 409.45 4587.05 383.883 4571.02 365.25C4555.42 346.183 4533.32 336.65 4504.72 336.65C4476.12 336.65 4453.59 345.967 4437.12 364.6C4421.09 383.233 4413.07 409.017 4413.07 441.95C4413.07 474.883 4421.3 500.667 4437.77 519.3C4454.24 537.933 4476.55 547.25 4504.72 547.25ZM4977.09 304.8C4979.69 298.3 4983.38 293.533 4988.14 290.5C4993.34 287.467 4998.76 285.95 5004.39 285.95C5012.63 285.95 5019.78 288.767 5025.84 294.4C5032.34 300.033 5035.59 306.75 5035.59 314.55C5035.59 318.883 5034.73 323 5032.99 326.9L4852.29 710.4C4849.69 716.467 4845.79 721.017 4840.59 724.05C4835.83 727.517 4830.63 729.25 4824.99 729.25C4817.19 729.25 4810.04 726.65 4803.54 721.45C4797.48 716.25 4794.44 709.75 4794.44 701.95C4794.44 698.483 4795.53 694.15 4797.69 688.95L4842.54 593.4L4717.09 326.9C4715.36 323.433 4714.49 319.533 4714.49 315.2C4714.49 306.967 4717.96 300.033 4724.89 294.4C4731.83 288.767 4739.63 285.95 4748.29 285.95C4761.29 285.95 4770.61 292.017 4776.24 304.15L4876.99 527.75L4977.09 304.8Z" fill="url(#paint8_linear)"/>
<path id="Management" d="M2495.09 621.5C2498.59 621.5 2501.27 622.55 2503.14 624.65C2505.24 626.75 2506.29 629.433 2506.29 632.7V860.55C2506.29 863.817 2505.36 866.5 2503.49 868.6C2501.62 870.7 2499.06 871.75 2495.79 871.75C2492.52 871.75 2490.07 870.817 2488.44 868.95C2486.81 866.85 2485.99 864.05 2485.99 860.55V666.3L2403.04 826.6C2400.24 831.967 2396.39 834.65 2391.49 834.65C2386.59 834.65 2382.74 831.967 2379.94 826.6L2296.29 667.7V860.55C2296.29 864.05 2295.47 866.85 2293.84 868.95C2292.21 870.817 2289.76 871.75 2286.49 871.75C2282.99 871.75 2280.31 870.817 2278.44 868.95C2276.81 866.85 2275.99 864.05 2275.99 860.55V632.7C2275.99 629.433 2276.92 626.75 2278.79 624.65C2280.89 622.55 2283.69 621.5 2287.19 621.5C2291.39 621.5 2294.89 624.183 2297.69 629.55L2391.84 810.15L2484.59 629.55C2487.39 624.183 2490.89 621.5 2495.09 621.5ZM2633.29 696.05C2653.82 696.05 2669.1 701.417 2679.14 712.15C2689.4 722.883 2694.54 739.1 2694.54 760.8V860.55C2694.54 863.817 2693.6 866.5 2691.74 868.6C2689.87 870.467 2687.3 871.4 2684.04 871.4C2680.77 871.4 2678.2 870.467 2676.34 868.6C2674.47 866.5 2673.54 863.817 2673.54 860.55V839.55C2668.64 850.05 2661.52 858.217 2652.19 864.05C2642.85 869.65 2632.12 872.45 2619.99 872.45C2609.02 872.45 2598.99 870.233 2589.89 865.8C2581.02 861.367 2573.9 855.3 2568.54 847.6C2563.17 839.9 2560.49 831.267 2560.49 821.7C2560.25 808.867 2563.4 798.95 2569.94 791.95C2576.47 784.717 2587.32 779.583 2602.49 776.55C2617.65 773.517 2638.89 772 2666.19 772H2673.54V759.05C2673.54 743.65 2670.39 732.45 2664.09 725.45C2657.79 718.217 2647.87 714.6 2634.34 714.6C2617.07 714.6 2600.62 719.15 2584.99 728.25C2584.29 728.717 2582.42 730 2579.39 732.1C2576.59 733.967 2574.14 734.9 2572.04 734.9C2569.7 734.9 2567.72 734.083 2566.09 732.45C2564.69 730.583 2563.99 728.367 2563.99 725.8C2563.99 720.667 2568.07 715.65 2576.24 710.75C2584.4 706.083 2593.5 702.467 2603.54 699.9C2613.57 697.333 2623.49 696.05 2633.29 696.05ZM2621.74 853.9C2636.9 853.9 2649.27 848.767 2658.84 838.5C2668.64 828.233 2673.54 815.167 2673.54 799.3V787.75H2666.89C2644.49 787.75 2627.34 788.683 2615.44 790.55C2603.54 792.417 2595.14 795.683 2590.24 800.35C2585.34 804.783 2582.89 811.317 2582.89 819.95C2582.89 829.75 2586.62 837.917 2594.09 844.45C2601.55 850.75 2610.77 853.9 2621.74 853.9ZM2829.77 696.05C2870.6 696.05 2891.02 717.983 2891.02 761.85V860.9C2891.02 864.167 2890.08 866.85 2888.22 868.95C2886.35 870.817 2883.78 871.75 2880.52 871.75C2877.25 871.75 2874.57 870.817 2872.47 868.95C2870.6 866.85 2869.67 864.167 2869.67 860.9V763.25C2869.67 746.45 2866.28 734.2 2859.52 726.5C2852.75 718.8 2842.02 714.95 2827.32 714.95C2810.52 714.95 2796.98 720.083 2786.72 730.35C2776.68 740.617 2771.67 754.383 2771.67 771.65V860.9C2771.67 864.167 2770.73 866.85 2768.87 868.95C2767 870.817 2764.43 871.75 2761.17 871.75C2757.9 871.75 2755.22 870.817 2753.12 868.95C2751.25 866.85 2750.32 864.167 2750.32 860.9V707.6C2750.32 704.333 2751.25 701.767 2753.12 699.9C2755.22 697.8 2757.9 696.75 2761.17 696.75C2764.2 696.75 2766.65 697.683 2768.52 699.55C2770.38 701.417 2771.32 703.983 2771.32 707.25V729.3C2776.68 718.567 2784.38 710.4 2794.42 704.8C2804.68 698.967 2816.47 696.05 2829.77 696.05ZM3013.71 696.05C3034.24 696.05 3049.52 701.417 3059.56 712.15C3069.82 722.883 3074.96 739.1 3074.96 760.8V860.55C3074.96 863.817 3074.02 866.5 3072.16 868.6C3070.29 870.467 3067.72 871.4 3064.46 871.4C3061.19 871.4 3058.62 870.467 3056.76 868.6C3054.89 866.5 3053.96 863.817 3053.96 860.55V839.55C3049.06 850.05 3041.94 858.217 3032.61 864.05C3023.27 869.65 3012.54 872.45 3000.41 872.45C2989.44 872.45 2979.41 870.233 2970.31 865.8C2961.44 861.367 2954.32 855.3 2948.96 847.6C2943.59 839.9 2940.91 831.267 2940.91 821.7C2940.67 808.867 2943.82 798.95 2950.36 791.95C2956.89 784.717 2967.74 779.583 2982.91 776.55C2998.07 773.517 3019.31 772 3046.61 772H3053.96V759.05C3053.96 743.65 3050.81 732.45 3044.51 725.45C3038.21 718.217 3028.29 714.6 3014.76 714.6C2997.49 714.6 2981.04 719.15 2965.41 728.25C2964.71 728.717 2962.84 730 2959.81 732.1C2957.01 733.967 2954.56 734.9 2952.46 734.9C2950.12 734.9 2948.14 734.083 2946.51 732.45C2945.11 730.583 2944.41 728.367 2944.41 725.8C2944.41 720.667 2948.49 715.65 2956.66 710.75C2964.82 706.083 2973.92 702.467 2983.96 699.9C2993.99 697.333 3003.91 696.05 3013.71 696.05ZM3002.16 853.9C3017.32 853.9 3029.69 848.767 3039.26 838.5C3049.06 828.233 3053.96 815.167 3053.96 799.3V787.75H3047.31C3024.91 787.75 3007.76 788.683 2995.86 790.55C2983.96 792.417 2975.56 795.683 2970.66 800.35C2965.76 804.783 2963.31 811.317 2963.31 819.95C2963.31 829.75 2967.04 837.917 2974.51 844.45C2981.97 850.75 2991.19 853.9 3002.16 853.9ZM3265.84 696.75C3269.1 696.75 3271.67 697.8 3273.54 699.9C3275.64 701.767 3276.69 704.333 3276.69 707.6V860.2C3276.69 884.933 3270.5 903.6 3258.14 916.2C3246 929.033 3227.92 935.45 3203.89 935.45C3191.29 935.45 3179.97 934.167 3169.94 931.6C3160.14 929.267 3150.92 925.533 3142.29 920.4C3133.89 915.267 3129.69 910.25 3129.69 905.35C3129.69 902.783 3130.39 900.683 3131.79 899.05C3133.42 897.417 3135.4 896.6 3137.74 896.6C3139.14 896.6 3141 897.183 3143.34 898.35C3145.9 899.75 3147.65 900.683 3148.59 901.15C3156.52 905.583 3164.69 909.2 3173.09 912C3181.49 915.033 3191.87 916.55 3204.24 916.55C3221.27 916.55 3234.1 912 3242.74 902.9C3251.37 893.8 3255.69 880.267 3255.69 862.3V829.05C3250.79 840.483 3243.2 849.35 3232.94 855.65C3222.9 861.717 3210.65 864.75 3196.19 864.75C3181.25 864.75 3167.95 861.25 3156.29 854.25C3144.85 847.25 3135.87 837.333 3129.34 824.5C3123.04 811.667 3119.89 796.967 3119.89 780.4C3119.89 763.833 3123.04 749.133 3129.34 736.3C3135.87 723.467 3144.85 713.55 3156.29 706.55C3167.95 699.55 3181.25 696.05 3196.19 696.05C3210.42 696.05 3222.55 699.083 3232.59 705.15C3242.62 710.983 3250.2 719.617 3255.34 731.05V707.6C3255.34 704.333 3256.27 701.767 3258.14 699.9C3260 697.8 3262.57 696.75 3265.84 696.75ZM3198.99 845.85C3216.72 845.85 3230.49 840.017 3240.29 828.35C3250.32 816.683 3255.34 800.7 3255.34 780.4C3255.34 760.1 3250.32 744.117 3240.29 732.45C3230.25 720.55 3216.49 714.6 3198.99 714.6C3181.25 714.6 3167.37 720.433 3157.34 732.1C3147.3 743.767 3142.29 759.867 3142.29 780.4C3142.29 800.933 3147.3 817.033 3157.34 828.7C3167.37 840.133 3181.25 845.85 3198.99 845.85ZM3462.94 833.6C3465.04 833.6 3466.79 834.533 3468.19 836.4C3469.82 838.033 3470.64 840.017 3470.64 842.35C3470.64 847.483 3466.67 852.5 3458.74 857.4C3441.94 867.433 3424.2 872.45 3405.54 872.45C3379.64 872.45 3359.22 864.633 3344.29 849C3329.35 833.367 3321.89 811.9 3321.89 784.6C3321.89 767.1 3325.15 751.7 3331.69 738.4C3338.45 724.867 3347.79 714.483 3359.69 707.25C3371.82 699.783 3385.7 696.05 3401.34 696.05C3423.27 696.05 3440.54 703.167 3453.14 717.4C3465.97 731.4 3472.39 750.767 3472.39 775.5C3472.39 779.7 3471.45 782.85 3469.59 784.95C3467.72 786.817 3464.69 787.75 3460.49 787.75H3343.94C3344.64 809.217 3350.24 825.55 3360.74 836.75C3371.24 847.95 3386.05 853.55 3405.19 853.55C3415.22 853.55 3423.62 852.267 3430.39 849.7C3437.15 846.9 3444.39 843.283 3452.09 838.85C3457.22 835.35 3460.84 833.6 3462.94 833.6ZM3401.34 713.55C3385 713.55 3371.94 718.683 3362.14 728.95C3352.34 739.217 3346.5 753.567 3344.64 772H3452.79C3452.32 753.333 3447.65 738.983 3438.79 728.95C3429.92 718.683 3417.44 713.55 3401.34 713.55ZM3700.37 696.05C3737.93 696.05 3756.72 717.983 3756.72 761.85V860.9C3756.72 864.167 3755.78 866.85 3753.92 868.95C3752.05 870.817 3749.48 871.75 3746.22 871.75C3742.95 871.75 3740.27 870.817 3738.17 868.95C3736.3 866.85 3735.37 864.167 3735.37 860.9V763.25C3735.37 746.217 3732.33 733.967 3726.27 726.5C3720.2 718.8 3710.52 714.95 3697.22 714.95C3682.05 714.95 3669.92 720.083 3660.82 730.35C3651.95 740.617 3647.52 754.383 3647.52 771.65V860.9C3647.52 864.167 3646.58 866.85 3644.72 868.95C3642.85 870.817 3640.28 871.75 3637.02 871.75C3633.75 871.75 3631.07 870.817 3628.97 868.95C3627.1 866.85 3626.17 864.167 3626.17 860.9V763.25C3626.17 746.217 3623.13 733.967 3617.07 726.5C3611 718.8 3601.32 714.95 3588.02 714.95C3572.85 714.95 3560.72 720.083 3551.62 730.35C3542.75 740.617 3538.32 754.383 3538.32 771.65V860.9C3538.32 864.167 3537.38 866.85 3535.52 868.95C3533.65 870.817 3531.08 871.75 3527.82 871.75C3524.55 871.75 3521.87 870.817 3519.77 868.95C3517.9 866.85 3516.97 864.167 3516.97 860.9V707.6C3516.97 704.1 3517.9 701.417 3519.77 699.55C3521.87 697.683 3524.55 696.75 3527.82 696.75C3531.08 696.75 3533.53 697.683 3535.17 699.55C3537.03 701.417 3537.97 703.983 3537.97 707.25V728.25C3542.87 717.75 3549.87 709.817 3558.97 704.45C3568.3 698.85 3579.03 696.05 3591.17 696.05C3618 696.05 3635.38 707.25 3643.32 729.65C3648.22 719.15 3655.68 710.983 3665.72 705.15C3675.75 699.083 3687.3 696.05 3700.37 696.05ZM3942.14 833.6C3944.24 833.6 3945.99 834.533 3947.39 836.4C3949.02 838.033 3949.84 840.017 3949.84 842.35C3949.84 847.483 3945.87 852.5 3937.94 857.4C3921.14 867.433 3903.4 872.45 3884.74 872.45C3858.84 872.45 3838.42 864.633 3823.49 849C3808.55 833.367 3801.09 811.9 3801.09 784.6C3801.09 767.1 3804.35 751.7 3810.89 738.4C3817.65 724.867 3826.99 714.483 3838.89 707.25C3851.02 699.783 3864.9 696.05 3880.54 696.05C3902.47 696.05 3919.74 703.167 3932.34 717.4C3945.17 731.4 3951.59 750.767 3951.59 775.5C3951.59 779.7 3950.65 782.85 3948.79 784.95C3946.92 786.817 3943.89 787.75 3939.69 787.75H3823.14C3823.84 809.217 3829.44 825.55 3839.94 836.75C3850.44 847.95 3865.25 853.55 3884.39 853.55C3894.42 853.55 3902.82 852.267 3909.59 849.7C3916.35 846.9 3923.59 843.283 3931.29 838.85C3936.42 835.35 3940.04 833.6 3942.14 833.6ZM3880.54 713.55C3864.2 713.55 3851.14 718.683 3841.34 728.95C3831.54 739.217 3825.7 753.567 3823.84 772H3931.99C3931.52 753.333 3926.85 738.983 3917.99 728.95C3909.12 718.683 3896.64 713.55 3880.54 713.55ZM4075.62 696.05C4116.45 696.05 4136.87 717.983 4136.87 761.85V860.9C4136.87 864.167 4135.93 866.85 4134.07 868.95C4132.2 870.817 4129.63 871.75 4126.37 871.75C4123.1 871.75 4120.42 870.817 4118.32 868.95C4116.45 866.85 4115.52 864.167 4115.52 860.9V763.25C4115.52 746.45 4112.13 734.2 4105.37 726.5C4098.6 718.8 4087.87 714.95 4073.17 714.95C4056.37 714.95 4042.83 720.083 4032.57 730.35C4022.53 740.617 4017.52 754.383 4017.52 771.65V860.9C4017.52 864.167 4016.58 866.85 4014.72 868.95C4012.85 870.817 4010.28 871.75 4007.02 871.75C4003.75 871.75 4001.07 870.817 3998.97 868.95C3997.1 866.85 3996.17 864.167 3996.17 860.9V707.6C3996.17 704.333 3997.1 701.767 3998.97 699.9C4001.07 697.8 4003.75 696.75 4007.02 696.75C4010.05 696.75 4012.5 697.683 4014.37 699.55C4016.23 701.417 4017.17 703.983 4017.17 707.25V729.3C4022.53 718.567 4030.23 710.4 4040.27 704.8C4050.53 698.967 4062.32 696.05 4075.62 696.05ZM4266.21 853.9C4272.74 854.6 4276.01 857.633 4276.01 863C4276.01 865.8 4274.96 868.017 4272.86 869.65C4270.76 871.283 4267.37 871.983 4262.71 871.75L4252.91 871.05C4235.17 869.883 4221.99 864.517 4213.36 854.95C4204.96 845.15 4200.76 830.333 4200.76 810.5V717.4H4174.16C4171.36 717.4 4169.14 716.7 4167.51 715.3C4165.87 713.667 4165.06 711.567 4165.06 709C4165.06 706.433 4165.87 704.333 4167.51 702.7C4169.14 701.067 4171.36 700.25 4174.16 700.25H4200.76V656.85C4200.76 653.35 4201.69 650.667 4203.56 648.8C4205.42 646.933 4207.99 646 4211.26 646C4214.52 646 4217.09 646.933 4218.96 648.8C4221.06 650.667 4222.11 653.35 4222.11 656.85V700.25H4264.46C4267.49 700.25 4269.82 701.067 4271.46 702.7C4273.09 704.333 4273.91 706.433 4273.91 709C4273.91 711.567 4273.09 713.667 4271.46 715.3C4269.82 716.7 4267.49 717.4 4264.46 717.4H4222.11V811.55C4222.11 826.017 4224.91 836.4 4230.51 842.7C4236.11 848.767 4244.86 852.267 4256.76 853.2L4266.21 853.9Z" fill="url(#paint9_linear)"/>
</g>
<defs>
<linearGradient id="paint0_linear" x1="379.988" y1="587.649" x2="496.488" y2="587.649" gradientUnits="userSpaceOnUse">
<stop offset="0.0027933" stop-color="#00FF00"/>
<stop offset="1" stop-color="#00FFB9"/>
</linearGradient>
<linearGradient id="paint1_linear" x1="557.138" y1="620.515" x2="573.478" y2="620.515" gradientUnits="userSpaceOnUse">
<stop offset="0.0027933" stop-color="#00FF00"/>
<stop offset="1" stop-color="#00FFB9"/>
</linearGradient>
<linearGradient id="paint2_linear" x1="639.781" y1="531.308" x2="754.717" y2="531.308" gradientUnits="userSpaceOnUse">
<stop offset="0.0027933" stop-color="#00FF00"/>
<stop offset="1" stop-color="#00FFB9"/>
</linearGradient>
<linearGradient id="paint3_linear" x1="705.075" y1="206.189" x2="788.021" y2="206.189" gradientUnits="userSpaceOnUse">
<stop offset="0.0027933" stop-color="#00FF00"/>
<stop offset="1" stop-color="#00FFB9"/>
</linearGradient>
<linearGradient id="paint4_linear" x1="523.834" y1="418.249" x2="606.78" y2="418.249" gradientUnits="userSpaceOnUse">
<stop offset="0.0027933" stop-color="#00FF00"/>
<stop offset="1" stop-color="#00FFB9"/>
</linearGradient>
<linearGradient id="paint5_linear" x1="346.685" y1="318.87" x2="429.631" y2="318.87" gradientUnits="userSpaceOnUse">
<stop offset="0.0027933" stop-color="#00FF00"/>
<stop offset="1" stop-color="#00FFB9"/>
</linearGradient>
<linearGradient id="paint6_linear" x1="430.069" y1="947.227" x2="700.547" y2="947.227" gradientUnits="userSpaceOnUse">
<stop offset="0.0027933" stop-color="#00FF00"/>
<stop offset="1" stop-color="#00FFB9"/>
</linearGradient>
<linearGradient id="paint7_linear" x1="205" y1="432.299" x2="925.612" y2="432.299" gradientUnits="userSpaceOnUse">
<stop offset="0.0027933" stop-color="#00FF00"/>
<stop offset="1" stop-color="#00FFB9"/>
</linearGradient>
<linearGradient id="paint8_linear" x1="1007" y1="70" x2="5043.97" y2="720.157" gradientUnits="userSpaceOnUse">
<stop stop-color="#01FF6A"/>
<stop offset="1" stop-color="#00FFB4"/>
<stop offset="1" stop-color="#01FFB4"/>
</linearGradient>
<linearGradient id="paint9_linear" x1="2244" y1="580" x2="4285.37" y2="887.776" gradientUnits="userSpaceOnUse">
<stop stop-color="#01FF6A"/>
<stop offset="1" stop-color="#00FFB4"/>
<stop offset="1" stop-color="#01FFB4"/>
</linearGradient>
</defs>
</svg>
